#!OML:ASF F:\VICON\USERDATA\INSTALL\rory3\rory3.ASF
:FULLY-SPECIFIED
:DEGREES
141
root 3.99368 17.5606 3.87458 21.2769 -15.9546 -0.899235
lowerback -11.4707 4.07996 3.21848
upperback -12.6258 5.13441 -0.276841
thorax -6.68457 2.27867 -1.78584
lowerneck -3.67604 15.4996 12.5437
upperneck 16.1736 18.9858 6.19424
head 6.16959 10.3659 1.39563
rclavicle -6.81831e-014 -4.37326e-014
rhumerus 2.47601 -26.2967 9.42097
rradius 120.323
rwrist -61.3383
rhand -7.08569 -48.0221
rfingers 7.12502
rthumb 18.7884 -77.1348
lclavicle -6.81831e-014 -4.37326e-014
lhumerus 30.6674 27.879 -18.8199
lradius 33.5189
lwrist 37.2884
lhand -27.7666 -20.5468
lfingers 7.12502
lthumb -1.16048 9.42977
rfemur -1.91588 4.33074 -5.34023
rtibia -2.22639e-014
rfoot -33.8227 -21.5824
rtoes 53.6339
lfemur -23.6947 0.706758 -27.9409
ltibia 17.3921
lfoot -13.1859 9.36823
ltoes 10.2371
142
root 3.99631 17.5611 3.87259 21.3193 -16.0333 -1.07407
lowerback -11.548 4.13027 3.35822
upperback -12.5734 5.18906 -0.22875
thorax -6.57482 2.30031 -1.80036
lowerneck -3.52867 15.3526 12.5874
upperneck 16.2222 18.8359 5.97539
head 6.18287 10.2826 1.30406
rclavicle -5.27276e-014 -3.89618e-014
rhumerus 2.61586 -26.0528 9.23252
rradius 120.291
rwrist -61.3614
rhand -7.46371 -48.1137
rfingers 7.12502
rthumb 18.4248 -77.2611
lclavicle -5.27276e-014 -3.89618e-014
lhumerus 30.6862 27.9595 -18.6966
lradius 33.5357
lwrist 37.1418
lhand -28.0984 -20.7909
lfingers 7.12502
lthumb -1.48093 9.18375
rfemur -1.98627 4.45653 -5.19701
rtibia -1.59028e-014
rfoot -33.9259 -21.4822
rtoes 53.7136
lfemur -23.7666 0.819302 -27.811
ltibia 17.5549
lfoot -13.3178 9.40125
ltoes 9.99357
143
root 4.00072 17.5622 3.87099 21.4423 -16.1121 -1.35769
lowerback -11.5996 4.23844 3.62459
upperback -12.5586 5.31355 -0.201999
thorax -6.50597 2.34509 -1.90538
lowerneck -3.63328 15.2193 12.4225
upperneck 16.4507 18.6237 6.12381
head 6.23768 10.1911 1.36776
rclavicle -3.38928e-014 1.39149e-014
rhumerus 2.59812 -25.8826 9.09173
rradius 120.284
rwrist -61.2689
rhand -7.83867 -48.2447
rfingers 7.12502
rthumb 18.0641 -77.4259
lclavicle -3.38928e-014 1.39149e-014
lhumerus 31.0536 28.4256 -18.1477
lradius 33.4429
lwrist 36.8416
lhand -27.2391 -20.7702
lfingers 7.12502
lthumb -0.651038 9.20857
rfemur -2.14622 4.59766 -4.94419
rtibia 6.36111e-015
rfoot -33.9491 -21.7092
rtoes 53.6983
lfemur -23.9165 0.871705 -27.5491
ltibia 17.7342
lfoot -13.4142 9.49904
ltoes 9.8036
144
root 4.00411 17.5607 3.86596 21.4442 -16.1662 -1.37483
lowerback -11.5489 4.26562 3.66056
upperback -12.5897 5.34935 -0.232956
thorax -6.56076 2.35702 -1.96036
lowerneck -3.49032 15.0754 12.3598
upperneck 16.5693 18.4495 6.1421
head 6.24009 10.1098 1.35838
rclavicle -3.38431e-014 -2.06736e-014
rhumerus 2.72283 -25.7931 8.78301
rradius 120.193
rwrist -61.006
rhand -8.35551 -48.2663
rfingers 7.12502
rthumb 17.5667 -77.4926
lclavicle -3.38431e-014 -2.06736e-014
lhumerus 31.3149 28.6343 -17.7332
lradius 33.4654
lwrist 36.9445
lhand -26.5168 -20.5863
lfingers 7.12502
lthumb 0.0465948 9.39339
rfemur -2.22138 4.65182 -4.93084
rtibia 0
rfoot -34.2978 -21.5181
rtoes 53.8417
lfemur -24.0281 0.819389 -27.5339
ltibia 17.9243
lfoot -13.4767 9.59886
ltoes 9.74015
